<svg width="24" height="23" viewBox="0 0 24 23" fill="none" xmlns="http://www.w3.org/2000/svg">
<path fill-rule="evenodd" clip-rule="evenodd" d="M6.6594 20.1237C7.15173 20.1237 7.5519 20.5238 7.5519 21.0162C7.5519 21.5085 7.15173 21.9075 6.6594 21.9075C6.16707 21.9075 5.76807 21.5085 5.76807 21.0162C5.76807 20.5238 6.16707 20.1237 6.6594 20.1237Z" stroke="#393F42" stroke-width="1.5" stroke-linecap="round" stroke-linejoin="round"/>
<path fill-rule="evenodd" clip-rule="evenodd" d="M19.7872 20.1237C20.2795 20.1237 20.6797 20.5238 20.6797 21.0162C20.6797 21.5085 20.2795 21.9075 19.7872 21.9075C19.2948 21.9075 18.8947 21.5085 18.8947 21.0162C18.8947 20.5238 19.2948 20.1237 19.7872 20.1237Z" stroke="#393F42" stroke-width="1.5" stroke-linecap="round" stroke-linejoin="round"/>
<path d="M1.20825 0.791626L3.63492 1.21163L4.75842 14.5968C4.84942 15.6876 5.76059 16.5253 6.85492 16.5253H19.5856C20.6309 16.5253 21.5176 15.7576 21.6681 14.7216L22.7753 7.07063C22.9118 6.12679 22.1803 5.28213 21.2271 5.28213H4.02459" stroke="#393F42" stroke-width="1.5" stroke-linecap="round" stroke-linejoin="round"/>
<path d="M14.4796 9.59408H17.7148" stroke="#393F42" stroke-width="1.5" stroke-linecap="round" stroke-linejoin="round"/>
</svg>
